<?xml version="1.0" encoding="UTF-8"?><svg id="Calque_2" xmlns="http://www.w3.org/2000/svg" xmlns:xlink="http://www.w3.org/1999/xlink" viewBox="0 0 69.54 64"><defs><style>.cls-1{fill:url(#Dégradé_sans_nom_19-3);}.cls-2{fill:url(#Dégradé_sans_nom_19-2);}.cls-3{fill:url(#Dégradé_sans_nom_19);}</style><linearGradient id="Dégradé_sans_nom_19" x1="0" y1="30.5" x2="37.2" y2="30.5" gradientUnits="userSpaceOnUse"><stop offset="0" stop-color="#f9b233"/><stop offset=".03" stop-color="#f48844"/><stop offset=".07" stop-color="#f05f55"/><stop offset=".11" stop-color="#ec3c64"/><stop offset=".15" stop-color="#e9226f"/><stop offset=".19" stop-color="#e70f77"/><stop offset=".24" stop-color="#e6037c"/><stop offset=".28" stop-color="#e6007e"/><stop offset=".67" stop-color="#662483"/><stop offset="1" stop-color="#009fe3"/></linearGradient><linearGradient id="Dégradé_sans_nom_19-2" x1="19.07" y1="38.57" x2="62.5" y2="38.57" xlink:href="#Dégradé_sans_nom_19"/><linearGradient id="Dégradé_sans_nom_19-3" x1="58.6" y1="4.68" x2="69.48" y2="6.32" xlink:href="#Dégradé_sans_nom_19"/></defs><g id="Calque_1-2"><path class="cls-3" d="M35.93,43.2c-.23,.6-.5,1.19-.79,1.76-.83,1.62-1.86,3.06-3.1,4.31-.23,.23-.47,.45-.71,.67l.1,.21c.22-.18,.43-.37,.64-.57l4.98,3.42h.15v-7.05l-1.27-2.75Zm.52-35.2l-5.46,3.09c-1.22-1.18-2.62-2.09-4.22-2.73-1.58-.64-3.31-.96-5.17-.96-4.46,0-8.3,1-11.52,2.98-3.22,2-5.71,4.73-7.46,8.21-1.75,3.48-2.62,7.45-2.62,11.91s.87,8.43,2.62,11.91c1.75,3.48,4.24,6.21,7.46,8.21,3.22,1.99,7.06,2.98,11.52,2.98,2.18,0,4.15-.36,5.91-1.08,.81-.33,1.56-.72,2.27-1.17l-.09-.2c-.62,.4-1.28,.74-1.97,1.04-1.64,.7-3.48,1.05-5.52,1.05-2.22,0-4.09-.66-5.6-1.98-1.51-1.32-2.71-3.08-3.6-5.28-.89-2.2-1.52-4.65-1.92-7.35-.39-2.7-.58-5.41-.58-8.13s.19-5.46,.58-8.15c.4-2.68,1.03-5.13,1.92-7.33,.89-2.2,2.09-3.96,3.6-5.28s3.38-1.98,5.6-1.98,4.34,.58,6.24,1.74c1.9,1.16,3.53,2.76,4.89,4.79,1.36,2.02,2.38,4.33,3.06,6.91h.21V8h-.15Z"/><path class="cls-2" d="M62.21,18.03l-18.96,43.86c-.54,1.27-1.79,2.09-3.17,2.11h-.04c-1.36,0-2.61-.79-3.18-2.04l-5.43-11.81-.1-.21-11.94-25.97c-.81-1.76-.04-3.84,1.72-4.64,.47-.22,.97-.32,1.46-.32,1.32,0,2.59,.75,3.18,2.03l10.18,22.15h0s1.27,2.76,1.27,2.76l2.74,5.96L55.79,15.25c.57-1.32,1.86-2.11,3.21-2.11,.47,0,.94,.09,1.39,.29,1.77,.77,2.59,2.83,1.82,4.6Z"/><circle class="cls-1" cx="64.04" cy="5.5" r="5.5"/></g></svg>